<svg version="1.2" xmlns="http://www.w3.org/2000/svg" viewBox="0 0 1542 494" width="1542" height="494">
	<title>idYpWK1qjb-svg</title>
	<defs>
		<linearGradient id="g1" x2="1" gradientUnits="userSpaceOnUse" gradientTransform="matrix(-1282.634,-305.243,124.237,-522.045,1524.847,502.656)">
			<stop offset="0" stop-color="#7d2ae7" stop-opacity="1"/>
			<stop offset=".771" stop-color="#7d2ae7" stop-opacity="1"/>
			<stop offset="1" stop-color="#7d2ae7" stop-opacity="0"/>
		</linearGradient>
		<radialGradient id="g2" cx="0" cy="0" r="1" gradientUnits="userSpaceOnUse" gradientTransform="matrix(323.48,-332.722,332.722,323.48,789.358,547.575)">
			<stop offset="0" stop-color="#6420ff" stop-opacity="1"/>
			<stop offset="1" stop-color="#6420ff" stop-opacity="0"/>
		</radialGradient>
		<radialGradient id="g3" cx="0" cy="0" r="1" gradientUnits="userSpaceOnUse" gradientTransform="matrix(900.31,80.165,-80.165,900.31,36.899,329.007)">
			<stop offset=".25" stop-color="#00c4cc" stop-opacity="1"/>
			<stop offset="1" stop-color="#00c4cc" stop-opacity="0"/>
		</radialGradient>
		<radialGradient id="g4" cx="0" cy="0" r="1" gradientUnits="userSpaceOnUse" gradientTransform="matrix(453.257,-365.07,365.07,453.257,658.005,493.632)">
			<stop offset="0" stop-color="#6420ff" stop-opacity="1"/>
			<stop offset="1" stop-color="#6420ff" stop-opacity="0"/>
		</radialGradient>
		<radialGradient id="g5" cx="0" cy="0" r="1" gradientUnits="userSpaceOnUse" gradientTransform="matrix(560.699,-382.014,382.014,560.699,86.374,579.844)">
			<stop offset="0" stop-color="#6420ff" stop-opacity="1"/>
			<stop offset="1" stop-color="#6420ff" stop-opacity="0"/>
		</radialGradient>
		<radialGradient id="g6" cx="0" cy="0" r="1" gradientUnits="userSpaceOnUse" gradientTransform="matrix(1310.38,289.825,-289.825,1310.38,148.355,45.266)">
			<stop offset="0" stop-color="#00c4cc" stop-opacity="1"/>
			<stop offset="1" stop-color="#00c4cc" stop-opacity="0"/>
		</radialGradient>
	</defs>
	<style>
		.s0 { fill: url(#g1) } 
		.s1 { fill: url(#g2) } 
		.s2 { fill: url(#g3) } 
		.s3 { fill: url(#g4) } 
		.s4 { fill: url(#g5) } 
		.s5 { fill: url(#g6) } 
	</style>
	<g id="Layer">
		<path id="Layer" fill-rule="evenodd" class="s0" d="m1541.1 354.3c0 44-45.5 97.2-97.3 97.2-33.2 0-51.8-23.9-58.7-56.3-21.6 36.3-49.4 57.1-84.2 57.1-31.7 0-68.8-21.6-68.8-98.8 0-26.2 5.4-53.2 15.5-77.9-23.2 16.2-47.1 16.9-62.6 14.6-40.2 83.4-107.4 162.1-144.4 162.1-30.2 0-49.5-57.1-58.8-128.1-28.5 76.4-71.8 128.1-114.3 128.1-38.6 0-57.1-28.5-57.1-72.5 0-40.2 21.6-103.5 21.6-134.3 0-7-1.6-13.2-7.7-13.2-20.9 0-88.9 93.4-116.7 206.9-2.3 10.8-17 13.9-29.3 13.9-26.3 0-32.5-28.6-32.5-58.7-25.5 37.8-53.3 58.7-85.7 58.7-28.6 0-50.3-18.5-58.7-56.4-21.7 36.3-49.5 57.2-84.2 57.2-39.4 0-64.9-29.4-68.8-85.7-34.8 67.9-100.4 125.8-175.4 125.8-109.7 0-173-77.2-173-206.1 0-162.1 125.9-287.9 251.8-287.9 75.7 0 117.5 37.8 117.5 91.1 0 53.2-38.7 91.8-71.9 91.8-8.5 0-12.3-5.4-12.3-10 0-17 23.9-36.3 23.9-79.5 0-35.5-17-58.7-53.3-58.7-75.7 0-178.5 113.5-178.5 253.2 0 96.5 38.7 157.5 112.1 157.5 81.1 0 140.6-81.1 170.7-164.4 22.4-62.6 72.6-110.4 118.2-110.4 27.8 0 47.1 12.3 54.1 41.7 18.5-33.2 38.6-40.2 56.3-40.2 17 0 24 6.2 24 17.8 0 4.6-0.8 9.2-2.3 14.6-13.2 43.3-39.4 136.7-39.4 180.7 0 16.2 4.6 26.2 13.9 26.2 50.2 0 103.5-156.7 99.6-217.7 0-6.1 3.1-11.5 8.5-13.9q11.6-6.9 25.5-6.9c41 0 35.6 55.6 21.7 112.7 42.4-74.9 86.5-115 120.5-115 28.5 0 44 21.6 44 56.3 0 47.1-24.7 102.7-24.7 146.7 0 13.9 3.1 24.7 13.9 24.7 23.2 0 58.7-47.1 75.7-108.1 3.8-14.6 6.2-29.3 6.9-44.7 1.6-40.2 14.7-74.9 55.7-74.9 17.7 0 22.4 4.6 22.4 11.6 0 11.5-3.1 13.9-3.9 52.5-1.5 67.9 4.6 162.8 23.9 162.8 15.5 0 54.9-55.6 81.9-116.5-32.4-16.2-47.1-49.4-47.1-81.9 0-41.6 24-81.8 65.7-81.8 27.8 0 44.8 20.9 44.8 55.6 0 21.6-6.2 51.7-22.4 91.1 22.4 5.4 52.5-5.4 78-38.6 25.5-33.2 56.4-54 88.1-54 27.8 0 47.9 12.3 54 41.6 18.6-33.2 38.7-40.1 56.4-40.1 17 0 24 6.2 24 18.5q0 5.8-2.3 13.9c-13.2 43.2-39.4 136.6-39.4 180.6 0 17 3.8 28.6 13.9 28.6 17.7 0 39.4-27 54.8-71.8 1.6-3.8 3.9-5.4 6.2-5.4 5.4 0 10.8 7.7 10 17zm-1019.7-97.3c0-25.4-6.9-45.5-23.9-45.5-39.4 0-77.3 91.8-77.3 146.7 0 31.6 8.5 52.4 29.4 52.4 36.3 0 71.8-98 71.8-153.6zm662.8-81c0-13.9-3.8-23.2-13.1-23.2-9.3 0-17.8 18.6-17.8 40.9 0 17.8 4.7 38.6 17 53.3 5.4-16.2 13.2-49.4 13.9-71zm220.2 81c0-25.4-6.2-45.5-23.2-45.5-39.4 0-77.2 93.4-77.2 146.7 0 27.7 8.5 52.4 29.3 52.4 37.1 0 71.9-98 71.1-153.6z"/>
		<path id="Layer" fill-rule="evenodd" class="s1" d="m1541.1 354.3c0 44-45.5 97.2-97.3 97.2-33.2 0-51.8-23.9-58.7-56.3-21.6 36.3-49.4 57.1-84.2 57.1-31.7 0-68.8-21.6-68.8-98.8 0-26.2 5.4-53.2 15.5-77.9-23.2 16.2-47.1 16.9-62.6 14.6-40.2 83.4-107.4 162.1-144.4 162.1-30.2 0-49.5-57.1-58.8-128.1-28.5 76.4-71.8 128.1-114.3 128.1-38.6 0-57.1-28.5-57.1-72.5 0-40.2 21.6-103.5 21.6-134.3 0-7-1.6-13.2-7.7-13.2-20.9 0-88.9 93.4-116.7 206.9-2.3 10.8-17 13.9-29.3 13.9-26.3 0-32.5-28.6-32.5-58.7-25.5 37.8-53.3 58.7-85.7 58.7-28.6 0-50.3-18.5-58.7-56.4-21.7 36.3-49.5 57.2-84.2 57.2-39.4 0-64.9-29.4-68.8-85.7-34.8 67.9-100.4 125.8-175.4 125.8-109.7 0-173-77.2-173-206.1 0-162.1 125.9-287.9 251.8-287.9 75.7 0 117.5 37.8 117.5 91.1 0 53.2-38.7 91.8-71.9 91.8-8.5 0-12.3-5.4-12.3-10 0-17 23.9-36.3 23.9-79.5 0-35.5-17-58.7-53.3-58.7-75.7 0-178.5 113.5-178.5 253.2 0 96.5 38.7 157.5 112.1 157.5 81.1 0 140.6-81.1 170.7-164.4 22.4-62.6 72.6-110.4 118.2-110.4 27.8 0 47.1 12.3 54.1 41.7 18.5-33.2 38.6-40.2 56.3-40.2 17 0 24 6.2 24 17.8 0 4.6-0.8 9.2-2.3 14.6-13.2 43.3-39.4 136.7-39.4 180.7 0 16.2 4.6 26.2 13.9 26.2 50.2 0 103.5-156.7 99.6-217.7 0-6.1 3.1-11.5 8.5-13.9q11.6-6.9 25.5-6.9c41 0 35.6 55.6 21.7 112.7 42.4-74.9 86.5-115 120.5-115 28.5 0 44 21.6 44 56.3 0 47.1-24.7 102.7-24.7 146.7 0 13.9 3.1 24.7 13.9 24.7 23.2 0 58.7-47.1 75.7-108.1 3.8-14.6 6.2-29.3 6.9-44.7 1.6-40.2 14.7-74.9 55.7-74.9 17.7 0 22.4 4.6 22.4 11.6 0 11.5-3.1 13.9-3.9 52.5-1.5 67.9 4.6 162.8 23.9 162.8 15.5 0 54.9-55.6 81.9-116.5-32.4-16.2-47.1-49.4-47.1-81.9 0-41.6 24-81.8 65.7-81.8 27.8 0 44.8 20.9 44.8 55.6 0 21.6-6.2 51.7-22.4 91.1 22.4 5.4 52.5-5.4 78-38.6 25.5-33.2 56.4-54 88.1-54 27.8 0 47.9 12.3 54 41.6 18.6-33.2 38.7-40.1 56.4-40.1 17 0 24 6.2 24 18.5q0 5.8-2.3 13.9c-13.2 43.2-39.4 136.6-39.4 180.6 0 17 3.8 28.6 13.9 28.6 17.7 0 39.4-27 54.8-71.8 1.6-3.8 3.9-5.4 6.2-5.4 5.4 0 10.8 7.7 10 17zm-1019.7-97.3c0-25.4-6.9-45.5-23.9-45.5-39.4 0-77.3 91.8-77.3 146.7 0 31.6 8.5 52.4 29.4 52.4 36.3 0 71.8-98 71.8-153.6zm662.8-81c0-13.9-3.8-23.2-13.1-23.2-9.3 0-17.8 18.6-17.8 40.9 0 17.8 4.7 38.6 17 53.3 5.4-16.2 13.2-49.4 13.9-71zm220.2 81c0-25.4-6.2-45.5-23.2-45.5-39.4 0-77.2 93.4-77.2 146.7 0 27.7 8.5 52.4 29.3 52.4 37.1 0 71.9-98 71.1-153.6z"/>
		<path id="Layer" fill-rule="evenodd" class="s2" d="m1541.1 354.3c0 44-45.5 97.2-97.3 97.2-33.2 0-51.8-23.9-58.7-56.3-21.6 36.3-49.4 57.1-84.2 57.1-31.7 0-68.8-21.6-68.8-98.8 0-26.2 5.4-53.2 15.5-77.9-23.2 16.2-47.1 16.9-62.6 14.6-40.2 83.4-107.4 162.1-144.4 162.1-30.2 0-49.5-57.1-58.8-128.1-28.5 76.4-71.8 128.1-114.3 128.1-38.6 0-57.1-28.5-57.1-72.5 0-40.2 21.6-103.5 21.6-134.3 0-7-1.6-13.2-7.7-13.2-20.9 0-88.9 93.4-116.7 206.9-2.3 10.8-17 13.9-29.3 13.9-26.3 0-32.5-28.6-32.5-58.7-25.5 37.8-53.3 58.7-85.7 58.7-28.6 0-50.3-18.5-58.7-56.4-21.7 36.3-49.5 57.2-84.2 57.2-39.4 0-64.9-29.4-68.8-85.7-34.8 67.9-100.4 125.8-175.4 125.8-109.7 0-173-77.2-173-206.1 0-162.1 125.9-287.9 251.8-287.9 75.7 0 117.5 37.8 117.5 91.1 0 53.2-38.7 91.8-71.9 91.8-8.5 0-12.3-5.4-12.3-10 0-17 23.9-36.3 23.9-79.5 0-35.5-17-58.7-53.3-58.7-75.7 0-178.5 113.5-178.5 253.2 0 96.5 38.7 157.5 112.1 157.5 81.1 0 140.6-81.1 170.7-164.4 22.4-62.6 72.6-110.4 118.2-110.4 27.8 0 47.1 12.3 54.1 41.7 18.5-33.2 38.6-40.2 56.3-40.2 17 0 24 6.2 24 17.8 0 4.6-0.8 9.2-2.3 14.6-13.2 43.3-39.4 136.7-39.4 180.7 0 16.2 4.6 26.2 13.9 26.2 50.2 0 103.5-156.7 99.6-217.7 0-6.1 3.1-11.5 8.5-13.9q11.6-6.9 25.5-6.9c41 0 35.6 55.6 21.7 112.7 42.4-74.9 86.5-115 120.5-115 28.5 0 44 21.6 44 56.3 0 47.1-24.7 102.7-24.7 146.7 0 13.9 3.1 24.7 13.9 24.7 23.2 0 58.7-47.1 75.7-108.1 3.8-14.6 6.2-29.3 6.9-44.7 1.6-40.2 14.7-74.9 55.7-74.9 17.7 0 22.4 4.6 22.4 11.6 0 11.5-3.1 13.9-3.9 52.5-1.5 67.9 4.6 162.8 23.9 162.8 15.5 0 54.9-55.6 81.9-116.5-32.4-16.2-47.1-49.4-47.1-81.9 0-41.6 24-81.8 65.7-81.8 27.8 0 44.8 20.9 44.8 55.6 0 21.6-6.2 51.7-22.4 91.1 22.4 5.4 52.5-5.4 78-38.6 25.5-33.2 56.4-54 88.1-54 27.8 0 47.9 12.3 54 41.6 18.6-33.2 38.7-40.1 56.4-40.1 17 0 24 6.2 24 18.5q0 5.8-2.3 13.9c-13.2 43.2-39.4 136.6-39.4 180.6 0 17 3.8 28.6 13.9 28.6 17.7 0 39.4-27 54.8-71.8 1.6-3.8 3.9-5.4 6.2-5.4 5.4 0 10.8 7.7 10 17zm-1019.7-97.3c0-25.4-6.9-45.5-23.9-45.5-39.4 0-77.3 91.8-77.3 146.7 0 31.6 8.5 52.4 29.4 52.4 36.3 0 71.8-98 71.8-153.6zm662.8-81c0-13.9-3.8-23.2-13.1-23.2-9.3 0-17.8 18.6-17.8 40.9 0 17.8 4.7 38.6 17 53.3 5.4-16.2 13.2-49.4 13.9-71zm220.2 81c0-25.4-6.2-45.5-23.2-45.5-39.4 0-77.2 93.4-77.2 146.7 0 27.7 8.5 52.4 29.3 52.4 37.1 0 71.9-98 71.1-153.6z"/>
		<path id="Layer" fill-rule="evenodd" class="s3" d="m1541.1 354.3c0 44-45.5 97.2-97.3 97.2-33.2 0-51.8-23.9-58.7-56.3-21.6 36.3-49.4 57.1-84.2 57.1-31.7 0-68.8-21.6-68.8-98.8 0-26.2 5.4-53.2 15.5-77.9-23.2 16.2-47.1 16.9-62.6 14.6-40.2 83.4-107.4 162.1-144.4 162.1-30.2 0-49.5-57.1-58.8-128.1-28.5 76.4-71.8 128.1-114.3 128.1-38.6 0-57.1-28.5-57.1-72.5 0-40.2 21.6-103.5 21.6-134.3 0-7-1.6-13.2-7.7-13.2-20.9 0-88.9 93.4-116.7 206.9-2.3 10.8-17 13.9-29.3 13.9-26.3 0-32.5-28.6-32.5-58.7-25.5 37.8-53.3 58.7-85.7 58.7-28.6 0-50.3-18.5-58.7-56.4-21.7 36.3-49.5 57.2-84.2 57.2-39.4 0-64.9-29.4-68.8-85.7-34.8 67.9-100.4 125.8-175.4 125.8-109.7 0-173-77.2-173-206.1 0-162.1 125.9-287.9 251.8-287.9 75.7 0 117.5 37.8 117.5 91.1 0 53.2-38.7 91.8-71.9 91.8-8.5 0-12.3-5.4-12.3-10 0-17 23.9-36.3 23.9-79.5 0-35.5-17-58.7-53.3-58.7-75.7 0-178.5 113.5-178.5 253.2 0 96.5 38.7 157.5 112.1 157.5 81.1 0 140.6-81.1 170.7-164.4 22.4-62.6 72.6-110.4 118.2-110.4 27.8 0 47.1 12.3 54.1 41.7 18.5-33.2 38.6-40.2 56.3-40.2 17 0 24 6.2 24 17.8 0 4.6-0.8 9.2-2.3 14.6-13.2 43.3-39.4 136.7-39.4 180.7 0 16.2 4.6 26.2 13.9 26.2 50.2 0 103.5-156.7 99.6-217.7 0-6.1 3.1-11.5 8.5-13.9q11.6-6.9 25.5-6.9c41 0 35.6 55.6 21.7 112.7 42.4-74.9 86.5-115 120.5-115 28.5 0 44 21.6 44 56.3 0 47.1-24.7 102.7-24.7 146.7 0 13.9 3.1 24.7 13.9 24.7 23.2 0 58.7-47.1 75.7-108.1 3.8-14.6 6.2-29.3 6.9-44.7 1.6-40.2 14.7-74.9 55.7-74.9 17.7 0 22.4 4.6 22.4 11.6 0 11.5-3.1 13.9-3.9 52.5-1.5 67.9 4.6 162.8 23.9 162.8 15.5 0 54.9-55.6 81.9-116.5-32.4-16.2-47.1-49.4-47.1-81.9 0-41.6 24-81.8 65.7-81.8 27.8 0 44.8 20.9 44.8 55.6 0 21.6-6.2 51.7-22.4 91.1 22.4 5.4 52.5-5.4 78-38.6 25.5-33.2 56.4-54 88.1-54 27.8 0 47.9 12.3 54 41.6 18.6-33.2 38.7-40.1 56.4-40.1 17 0 24 6.2 24 18.5q0 5.8-2.3 13.9c-13.2 43.2-39.4 136.6-39.4 180.6 0 17 3.8 28.6 13.9 28.6 17.7 0 39.4-27 54.8-71.8 1.6-3.8 3.9-5.4 6.2-5.4 5.4 0 10.8 7.7 10 17zm-1019.7-97.3c0-25.4-6.9-45.5-23.9-45.5-39.4 0-77.3 91.8-77.3 146.7 0 31.6 8.5 52.4 29.4 52.4 36.3 0 71.8-98 71.8-153.6zm662.8-81c0-13.9-3.8-23.2-13.1-23.2-9.3 0-17.8 18.6-17.8 40.9 0 17.8 4.7 38.6 17 53.3 5.4-16.2 13.2-49.4 13.9-71zm220.2 81c0-25.4-6.2-45.5-23.2-45.5-39.4 0-77.2 93.4-77.2 146.7 0 27.7 8.5 52.4 29.3 52.4 37.1 0 71.9-98 71.1-153.6z"/>
		<path id="Layer" fill-rule="evenodd" class="s4" d="m1541.1 354.3c0 44-45.5 97.2-97.3 97.2-33.2 0-51.8-23.9-58.7-56.3-21.6 36.3-49.4 57.1-84.2 57.1-31.7 0-68.8-21.6-68.8-98.8 0-26.2 5.4-53.2 15.5-77.9-23.2 16.2-47.1 16.9-62.6 14.6-40.2 83.4-107.4 162.1-144.4 162.1-30.2 0-49.5-57.1-58.8-128.1-28.5 76.4-71.8 128.1-114.3 128.1-38.6 0-57.1-28.5-57.1-72.5 0-40.2 21.6-103.5 21.6-134.3 0-7-1.6-13.2-7.7-13.2-20.9 0-88.9 93.4-116.7 206.9-2.3 10.8-17 13.9-29.3 13.9-26.3 0-32.5-28.6-32.5-58.7-25.5 37.8-53.3 58.7-85.7 58.7-28.6 0-50.3-18.5-58.7-56.4-21.7 36.3-49.5 57.2-84.2 57.2-39.4 0-64.9-29.4-68.8-85.7-34.8 67.9-100.4 125.8-175.4 125.8-109.7 0-173-77.2-173-206.1 0-162.1 125.9-287.9 251.8-287.9 75.7 0 117.5 37.8 117.5 91.1 0 53.2-38.7 91.8-71.9 91.8-8.5 0-12.3-5.4-12.3-10 0-17 23.9-36.3 23.9-79.5 0-35.5-17-58.7-53.3-58.7-75.7 0-178.5 113.5-178.5 253.2 0 96.5 38.7 157.5 112.1 157.5 81.1 0 140.6-81.1 170.7-164.4 22.4-62.6 72.6-110.4 118.2-110.4 27.8 0 47.1 12.3 54.1 41.7 18.5-33.2 38.6-40.2 56.3-40.2 17 0 24 6.2 24 17.8 0 4.6-0.8 9.2-2.3 14.6-13.2 43.3-39.4 136.7-39.4 180.7 0 16.2 4.6 26.2 13.9 26.2 50.2 0 103.5-156.7 99.6-217.7 0-6.1 3.1-11.5 8.5-13.9q11.6-6.9 25.5-6.9c41 0 35.6 55.6 21.7 112.7 42.4-74.9 86.5-115 120.5-115 28.5 0 44 21.6 44 56.3 0 47.1-24.7 102.7-24.7 146.7 0 13.9 3.1 24.7 13.9 24.7 23.2 0 58.7-47.1 75.7-108.1 3.8-14.6 6.2-29.3 6.9-44.7 1.6-40.2 14.7-74.9 55.7-74.9 17.7 0 22.4 4.6 22.4 11.6 0 11.5-3.1 13.9-3.9 52.5-1.5 67.9 4.6 162.8 23.9 162.8 15.5 0 54.9-55.6 81.9-116.5-32.4-16.2-47.1-49.4-47.1-81.9 0-41.6 24-81.8 65.7-81.8 27.8 0 44.8 20.9 44.8 55.6 0 21.6-6.2 51.7-22.4 91.1 22.4 5.4 52.5-5.4 78-38.6 25.5-33.2 56.4-54 88.1-54 27.8 0 47.9 12.3 54 41.6 18.6-33.2 38.7-40.1 56.4-40.1 17 0 24 6.2 24 18.5q0 5.8-2.3 13.9c-13.2 43.2-39.4 136.6-39.4 180.6 0 17 3.8 28.6 13.9 28.6 17.7 0 39.4-27 54.8-71.8 1.6-3.8 3.9-5.4 6.2-5.4 5.4 0 10.8 7.7 10 17zm-1019.7-97.3c0-25.4-6.9-45.5-23.9-45.5-39.4 0-77.3 91.8-77.3 146.7 0 31.6 8.5 52.4 29.4 52.4 36.3 0 71.8-98 71.8-153.6zm662.8-81c0-13.9-3.8-23.2-13.1-23.2-9.3 0-17.8 18.6-17.8 40.9 0 17.8 4.7 38.6 17 53.3 5.4-16.2 13.2-49.4 13.9-71zm220.2 81c0-25.4-6.2-45.5-23.2-45.5-39.4 0-77.2 93.4-77.2 146.7 0 27.7 8.5 52.4 29.3 52.4 37.1 0 71.9-98 71.1-153.6z"/>
		<path id="Layer" fill-rule="evenodd" class="s5" d="m1541.1 354.3c0 44-45.5 97.2-97.3 97.2-33.2 0-51.8-23.9-58.7-56.3-21.6 36.3-49.4 57.1-84.2 57.1-31.7 0-68.8-21.6-68.8-98.8 0-26.2 5.4-53.2 15.5-77.9-23.2 16.2-47.1 16.9-62.6 14.6-40.2 83.4-107.4 162.1-144.4 162.1-30.2 0-49.5-57.1-58.8-128.1-28.5 76.4-71.8 128.1-114.3 128.1-38.6 0-57.1-28.5-57.1-72.5 0-40.2 21.6-103.5 21.6-134.3 0-7-1.6-13.2-7.7-13.2-20.9 0-88.9 93.4-116.7 206.9-2.3 10.8-17 13.9-29.3 13.9-26.3 0-32.5-28.6-32.5-58.7-25.5 37.8-53.3 58.7-85.7 58.7-28.6 0-50.3-18.5-58.7-56.4-21.7 36.3-49.5 57.2-84.2 57.2-39.4 0-64.9-29.4-68.8-85.7-34.8 67.9-100.4 125.8-175.4 125.8-109.7 0-173-77.2-173-206.1 0-162.1 125.9-287.9 251.8-287.9 75.7 0 117.5 37.8 117.5 91.1 0 53.2-38.7 91.8-71.9 91.8-8.5 0-12.3-5.4-12.3-10 0-17 23.9-36.3 23.9-79.5 0-35.5-17-58.7-53.3-58.7-75.7 0-178.5 113.5-178.5 253.2 0 96.5 38.7 157.5 112.1 157.5 81.1 0 140.6-81.1 170.7-164.4 22.4-62.6 72.6-110.4 118.2-110.4 27.8 0 47.1 12.3 54.1 41.7 18.5-33.2 38.6-40.2 56.3-40.2 17 0 24 6.2 24 17.8 0 4.6-0.8 9.2-2.3 14.6-13.2 43.3-39.4 136.7-39.4 180.7 0 16.2 4.6 26.2 13.9 26.2 50.2 0 103.5-156.7 99.6-217.7 0-6.1 3.1-11.5 8.5-13.9q11.6-6.9 25.5-6.9c41 0 35.6 55.6 21.7 112.7 42.4-74.9 86.5-115 120.5-115 28.5 0 44 21.6 44 56.3 0 47.1-24.7 102.7-24.7 146.7 0 13.9 3.1 24.7 13.9 24.7 23.2 0 58.7-47.1 75.7-108.1 3.8-14.6 6.2-29.3 6.9-44.7 1.6-40.2 14.7-74.9 55.7-74.9 17.7 0 22.4 4.6 22.4 11.6 0 11.5-3.1 13.9-3.9 52.5-1.5 67.9 4.6 162.8 23.9 162.8 15.5 0 54.9-55.6 81.9-116.5-32.4-16.2-47.1-49.4-47.1-81.9 0-41.6 24-81.8 65.7-81.8 27.8 0 44.8 20.9 44.8 55.6 0 21.6-6.2 51.7-22.4 91.1 22.4 5.4 52.5-5.4 78-38.6 25.5-33.2 56.4-54 88.1-54 27.8 0 47.9 12.3 54 41.6 18.6-33.2 38.7-40.1 56.4-40.1 17 0 24 6.2 24 18.5q0 5.8-2.3 13.9c-13.2 43.2-39.4 136.6-39.4 180.6 0 17 3.8 28.6 13.9 28.6 17.7 0 39.4-27 54.8-71.8 1.6-3.8 3.9-5.4 6.2-5.4 5.4 0 10.8 7.7 10 17zm-1019.7-97.3c0-25.4-6.9-45.5-23.9-45.5-39.4 0-77.3 91.8-77.3 146.7 0 31.6 8.5 52.4 29.4 52.4 36.3 0 71.8-98 71.8-153.6zm662.8-81c0-13.9-3.8-23.2-13.1-23.2-9.3 0-17.8 18.6-17.8 40.9 0 17.8 4.7 38.6 17 53.3 5.4-16.2 13.2-49.4 13.9-71zm220.2 81c0-25.4-6.2-45.5-23.2-45.5-39.4 0-77.2 93.4-77.2 146.7 0 27.7 8.5 52.4 29.3 52.4 37.1 0 71.9-98 71.1-153.6z"/>
	</g>
</svg>