<svg version="1.2" xmlns="http://www.w3.org/2000/svg" viewBox="0 0 1551 603" width="1551" height="603">
	<title>WIX-svg</title>
	<defs>
		<clipPath clipPathUnits="userSpaceOnUse" id="cp1">
			<path d="m0 1h1552v601.07h-1552z"/>
		</clipPath>
	</defs>
	<style>
		.s0 { fill: #ffffff } 
	</style>
	<g id="Clip-Path: Clip-Path" clip-path="url(#cp1)">
		<g id="Clip-Path">
			<g id="Layer">
				<path id="Path 0" class="s0" d="m741 1.1c-11.8 0.5-23.8 1.3-26.5 1.8-2.8 0.5-8.6 2.3-13 4.1-4.4 1.7-10.7 4.8-14 6.8-3.3 1.9-8 5.2-10.4 7.1-2.5 2-7.3 7-10.9 11.1-4.1 4.8-8.1 11-11.2 17.5-4.5 9.2-5.7 13.6-14.9 53-5.4 23.7-14.7 63.9-20.5 89.5-5.8 25.6-19.8 87.2-31.2 137-11.3 49.8-21 91.4-21.4 92.5-0.6 1.6-0.9 1.7-1.4 0.5-0.3-0.8-2.4-10.1-4.6-20.5-2.3-10.4-10.4-48.3-18-84-7.6-35.8-20-93.6-27.5-128.5-7.5-34.9-15.8-73.4-18.5-85.5-2.8-12.1-6.3-25.4-7.9-29.5-1.6-4.1-4.6-10.4-6.6-14-2.1-3.6-6.6-10.1-10-14.5-3.4-4.4-8.9-10.4-12.1-13.4-3.2-3-9.7-7.9-14.4-11-4.7-3-12.3-7.2-17-9.3-4.7-2-13-4.9-18.5-6.4-9.1-2.5-11.6-2.7-27-2.7-14.9 0-18.2 0.3-26.5 2.5-5.2 1.4-12.9 3.9-17 5.6-4.1 1.7-11.8 5.9-17 9.4-5.2 3.4-13.4 10.1-18.1 14.8-4.7 4.7-11 12.1-13.9 16.5-3 4.4-7.1 11.6-9.3 16-2.2 4.4-5.2 13-6.8 19-1.5 6-5.6 23.4-8.9 38.5-3.4 15.1-10.8 49.3-16.5 76-5.6 26.7-14 65.8-18.5 87-4.5 21.2-12.6 59.2-18.1 84.5-5.4 25.3-10.3 46.9-10.8 48-0.7 1.6-1 1.7-1.5 0.5-0.3-0.8-9.1-39.3-19.6-85.5-10.5-46.2-21.3-93.7-24-105.5-2.8-11.8-12-52.1-20.5-89.5-8.5-37.4-16.6-72-18-77-1.4-5-4-11.9-5.7-15.5-1.8-3.6-5.7-9.6-8.8-13.5-3.1-3.8-8.3-9.3-11.6-12.1-3.2-2.7-7.2-6-8.9-7.1-1.7-1.2-6.2-3.7-10-5.6-3.8-1.9-10.8-4.5-15.5-5.7-7.5-2-11.5-2.3-33.2-2.6l-24.8-0.4c0.8 3.5 11 48.4 23.1 102 12.1 53.6 26.9 118.9 32.9 145 5.9 26.1 22.3 97.9 36.4 159.5 14 61.6 29.7 130.5 34.8 153l9.3 41c31 0.4 47.4 0.1 56.5-0.4 14.6-0.8 17.6-1.3 26.5-4.3 5.5-1.8 13.5-5.3 17.9-7.8 4.3-2.5 11.1-7.2 15-10.6 3.9-3.3 9.4-8.9 12.2-12.5 2.9-3.5 7.3-9.8 9.8-13.9 2.5-4.1 6-11.8 7.6-17 1.7-5.2 10.2-42.8 19-83.5 8.7-40.7 19.1-89.3 23-108 4-18.7 13.5-63.5 21.1-99.5 7.7-36 17.4-80.8 21.5-99.5 4.2-18.7 8-34.8 8.5-35.8 0.5-0.9 2-2.2 3.4-2.7 1.4-0.5 4-1 5.8-1 2 0 4.4 1 6.5 2.7 3.2 2.7 3.5 3.6 7.3 21.3 2.2 10.2 16.8 78.8 32.5 152.5 15.7 73.7 33.9 159.2 40.4 190 7.5 35 13.1 59.2 15.1 64.5 1.7 4.7 4.8 11.4 6.9 15 2.1 3.6 6.5 10 9.9 14.2 3.3 4.3 9.1 10.3 12.9 13.4 3.7 3.1 10.1 7.5 14.2 9.9 4.1 2.4 12.5 6.1 18.5 8.1 10.3 3.5 12.1 3.7 28.5 4.4 9.6 0.5 25.8 1 36 1.2l18.4 0.3c2.1-10.9 11.2-51.4 21.6-97 10.4-45.6 36.4-159.9 57.9-254 21.5-94.1 43.1-188.7 48.1-210.3 4.9-21.5 8.8-39.6 8.5-40.2-0.3-0.5-1.5-0.9-2.7-0.8-1.3 0-12 0.5-23.8 0.9zm155.5 0.9c-2.7 0.4-7.9 1.7-11.5 2.8-3.6 1.2-9.2 3.9-12.5 6-3.3 2.1-7.8 5.4-9.9 7.3-2.1 1.9-5.7 6.1-8 9.4-2.2 3.3-5.3 9.2-7 13l-2.9 7c-1.2 45-1.6 169.7-1.6 306.3l-0.1 248.2c51.6-0.6 52.8-0.7 60.5-3.3 4.4-1.5 10.9-4.6 14.4-6.9 3.6-2.4 8.9-7 11.8-10.3 3-3.3 7.2-9.6 9.3-14 2.2-4.4 4.6-10.7 5.5-14 1.3-5.3 1.5-35.7 1.5-279.3v-273.2c-34.5 0.2-46.7 0.6-49.5 1zm125 0.7c0.4 1 6 9.7 12.5 19.3 6.5 9.6 27.7 41 47.1 69.7 19.5 28.7 47.5 70.1 62.4 92 14.8 21.9 38.8 57.2 53.2 78.6l26.3 38.7c-2.9 5.8-12 19.9-22.2 35-10.1 15.1-30.3 45.1-44.8 66.5-14.5 21.5-50.4 74.4-79.7 117.8-29.3 43.3-53.6 79.4-54 80.3-0.7 1.5 3.4 1.6 48.2 1.2 47.4-0.5 49.2-0.5 55.5-2.7 3.6-1.2 9.2-3.5 12.5-5.2 3.3-1.6 9.1-5.3 13-8.2 5.6-4.2 8.7-7.8 16-18.2 5-7.1 18.1-26.3 29.1-42.5 11-16.2 32.1-47.3 46.9-69 14.8-21.7 29.2-43 32.2-47.2 3.8-5.6 6.1-8 8.1-8.4 1.6-0.4 3.7-0.1 5.1 0.7 1.4 0.8 6 6.6 10.4 12.9 4.4 6.3 15.2 22.1 24 35 8.8 12.9 30.2 44.4 47.5 70 17.3 25.6 34 49.8 37.1 53.9 3.1 4.1 7.9 9.4 10.6 11.8 2.8 2.4 8.8 6.3 13.5 8.7 4.7 2.4 11.3 5.4 14.8 6.5 5.9 2 8.2 2.1 55.2 2.1h49c-5.2-7.4-12.7-18.3-20-29-7.2-10.7-28.2-41.8-46.7-69-18.4-27.2-41.6-61.4-51.5-76-9.9-14.6-31.9-47.2-48.8-72.5-16.9-25.3-31.8-47.8-33.2-50l-2.6-4c18.9-27.9 38.3-56.5 55.3-81.5 16.9-25 56.9-84 88.8-131 31.9-47 58.3-86.1 58.6-86.9 0.5-1.1-7.1-1.3-47.9-0.9-42.3 0.4-49.3 0.7-55 2.2-3.6 1-9.7 3.3-13.5 5.2-3.8 1.9-10.2 6.1-14 9.3-5.3 4.4-9.6 9.6-18.1 21.7-6.1 8.7-20.7 30.1-32.6 47.4-11.8 17.3-29.7 43.7-39.8 58.5-10.1 14.9-22.2 32.4-26.8 39-4.6 6.6-9.9 13.9-11.8 16.3-2.7 3.3-4 4.1-6.1 4-2.3-0.3-4.3-2.4-11.4-12.3-4.7-6.6-19.6-28.2-33.1-48-13.5-19.8-33.9-49.7-45.3-66.5-11.4-16.8-24.5-35.7-29-42-4.5-6.3-10.9-14-14.1-17-3.3-3-9.1-7.2-12.9-9.2-3.9-2-10.4-4.7-14.5-5.9-7.3-2.2-9.1-2.3-55.8-2.7-46.4-0.3-48.3-0.3-47.7 1.5z"/>
			</g>
		</g>
	</g>
</svg>